<svg xmlns="http://www.w3.org/2000/svg" width="500" height="500" viewBox="0 0 500 500">
  <path d="M 117.000 0.000 L 116.875 95.250 L 118.000 96.375 L 117.875 99.250 L 119.000 100.375 L 118.875 102.250 L 120.000 103.375 L 120.000 104.500 L 121.000 105.375 L 121.000 106.500 L 124.000 109.375 L 124.000 110.500 L 126.375 112.875 L 127.500 112.875 L 130.375 115.875 L 131.500 115.875 L 132.375 116.875 L 133.500 116.875 L 134.625 118.000 L 136.500 117.875 L 137.625 119.000 L 140.500 118.875 L 141.625 120.000 L 235.500 119.875 L 236.000 120.375 L 235.875 215.250 L 237.000 216.375 L 236.875 218.250 L 238.000 219.375 L 238.000 220.500 L 239.000 221.375 L 239.000 222.500 L 240.000 223.375 L 240.000 224.500 L 243.000 227.375 L 243.000 228.625 L 244.500 228.875 L 248.375 232.875 L 249.500 232.875 L 250.375 233.875 L 251.500 233.875 L 252.625 235.000 L 254.500 234.875 L 255.625 236.000 L 257.500 235.875 L 258.625 237.000 L 317.500 236.875 L 318.625 238.000 L 323.500 237.875 L 324.625 239.000 L 327.500 238.875 L 328.625 240.000 L 330.500 239.875 L 331.625 241.000 L 333.500 240.875 L 334.625 242.000 L 336.500 241.875 L 337.375 242.875 L 338.500 242.875 L 339.375 243.875 L 340.500 243.875 L 341.375 244.875 L 342.500 244.875 L 343.375 245.875 L 344.500 245.875 L 346.375 247.875 L 347.500 247.875 L 349.375 249.875 L 350.500 249.875 L 353.375 252.875 L 354.500 252.875 L 365.000 263.375 L 365.000 264.500 L 368.000 267.375 L 368.000 268.500 L 370.000 270.375 L 370.000 271.500 L 372.000 273.375 L 372.000 274.500 L 373.000 275.375 L 373.000 276.500 L 374.000 277.375 L 374.000 278.500 L 375.000 279.375 L 374.875 281.250 L 376.000 282.375 L 376.000 283.500 L 377.000 284.375 L 376.875 286.250 L 378.000 287.375 L 378.000 289.500 L 379.000 290.375 L 378.875 293.250 L 380.000 294.375 L 379.875 299.250 L 381.000 300.375 L 381.000 317.500 L 379.875 318.625 L 380.000 323.500 L 378.875 324.625 L 379.000 327.500 L 377.875 328.625 L 378.000 330.500 L 376.875 331.625 L 377.000 333.500 L 375.875 334.625 L 376.000 336.500 L 375.000 337.375 L 375.000 338.500 L 374.000 339.375 L 374.000 340.500 L 373.000 341.375 L 373.000 342.500 L 372.000 343.375 L 372.000 344.500 L 370.000 346.375 L 370.000 347.500 L 369.000 348.375 L 369.000 349.500 L 366.000 352.375 L 366.000 353.500 L 353.500 366.000 L 352.375 366.000 L 349.500 369.000 L 348.375 369.000 L 346.500 371.000 L 345.375 371.000 L 344.500 372.000 L 343.375 372.000 L 342.500 373.000 L 341.375 373.000 L 340.500 374.000 L 339.375 374.000 L 338.500 375.000 L 337.375 375.000 L 336.500 376.000 L 335.375 376.000 L 334.500 377.000 L 332.625 376.875 L 331.500 378.000 L 329.375 378.000 L 328.500 379.000 L 325.625 378.875 L 324.500 380.000 L 320.625 379.875 L 319.500 381.000 L 298.375 381.000 L 297.250 379.875 L 293.375 380.000 L 292.250 378.875 L 289.375 379.000 L 288.250 377.875 L 286.375 378.000 L 285.250 376.875 L 283.375 377.000 L 282.500 376.000 L 281.375 376.000 L 280.250 374.875 L 278.375 375.000 L 277.500 374.000 L 276.375 374.000 L 275.500 373.000 L 274.375 373.000 L 272.500 371.000 L 271.375 371.000 L 270.500 370.000 L 269.375 370.000 L 267.500 368.000 L 266.375 368.000 L 262.500 364.000 L 261.375 364.000 L 253.875 356.500 L 253.875 355.375 L 249.875 351.500 L 249.875 350.375 L 247.875 348.500 L 247.875 347.375 L 246.875 346.500 L 246.875 345.375 L 244.875 343.500 L 244.875 342.375 L 243.875 341.500 L 243.875 340.375 L 242.875 339.500 L 242.875 338.375 L 241.875 337.500 L 242.000 335.625 L 240.875 334.500 L 241.000 332.625 L 239.875 331.500 L 240.000 329.625 L 238.875 328.500 L 238.875 326.375 L 237.875 325.500 L 238.000 321.625 L 236.875 320.500 L 237.000 261.625 L 235.875 260.500 L 236.000 256.625 L 234.875 255.500 L 235.000 253.625 L 233.875 252.500 L 233.875 251.375 L 232.875 250.500 L 232.875 249.375 L 230.875 247.500 L 230.875 246.375 L 226.500 242.000 L 225.375 242.000 L 223.500 240.000 L 222.375 240.000 L 220.500 238.000 L 218.375 238.000 L 217.250 236.875 L 215.375 237.000 L 214.250 235.875 L 118.375 236.000 L 117.875 235.500 L 118.000 138.625 L 116.875 137.500 L 117.000 135.625 L 115.875 134.500 L 115.875 133.375 L 114.875 132.500 L 114.875 131.375 L 112.875 129.500 L 112.875 128.375 L 107.500 123.000 L 106.375 123.000 L 104.500 121.000 L 103.375 121.000 L 102.500 120.000 L 101.375 120.000 L 100.250 118.875 L 98.375 119.000 L 97.250 117.875 L 0.000 118.000 L 0.000 175.875 L 1.000 176.375 L 0.875 180.250 L 2.000 181.375 L 1.875 184.250 L 3.000 185.375 L 2.875 187.250 L 4.000 188.375 L 3.875 190.250 L 5.000 191.375 L 5.000 192.500 L 6.000 193.375 L 6.000 194.500 L 7.000 195.375 L 7.000 196.500 L 8.000 197.375 L 8.000 198.500 L 9.000 199.375 L 9.000 200.500 L 11.000 202.375 L 11.000 203.500 L 12.000 204.375 L 12.000 205.500 L 15.000 208.375 L 15.000 209.500 L 26.375 220.875 L 27.500 220.875 L 30.375 223.875 L 31.500 223.875 L 33.375 225.875 L 34.500 225.875 L 35.375 226.875 L 36.500 226.875 L 38.375 228.875 L 39.500 228.875 L 40.625 230.000 L 42.500 229.875 L 43.375 230.875 L 44.500 230.875 L 45.375 231.875 L 46.500 231.875 L 47.625 233.000 L 49.500 232.875 L 50.625 234.000 L 53.500 233.875 L 54.625 235.000 L 57.500 234.875 L 58.625 236.000 L 64.500 235.875 L 65.625 237.000 L 116.500 236.875 L 117.000 237.375 L 116.875 320.250 L 118.000 321.375 L 117.875 331.250 L 119.000 332.375 L 118.875 339.250 L 120.000 340.375 L 119.875 344.250 L 121.000 345.375 L 120.875 349.250 L 122.000 350.375 L 121.875 354.250 L 123.000 355.375 L 122.875 358.250 L 124.000 359.375 L 124.000 361.500 L 125.000 362.375 L 124.875 365.250 L 126.000 366.375 L 125.875 368.250 L 127.000 369.375 L 126.875 371.250 L 128.000 372.375 L 127.875 374.250 L 129.000 375.375 L 129.000 376.500 L 130.000 377.375 L 129.875 379.250 L 131.000 380.375 L 131.000 381.500 L 132.000 382.375 L 131.875 384.250 L 133.000 385.375 L 133.000 386.500 L 134.000 387.375 L 134.000 388.500 L 135.000 389.375 L 135.000 390.500 L 136.000 391.375 L 136.000 392.500 L 137.000 393.375 L 137.000 394.500 L 138.000 395.375 L 138.000 396.500 L 139.000 397.375 L 139.000 398.500 L 140.000 399.375 L 140.000 400.500 L 141.000 401.375 L 141.000 402.500 L 142.000 403.375 L 142.000 404.500 L 144.000 406.375 L 144.000 407.500 L 145.000 408.375 L 145.000 409.500 L 147.000 411.375 L 147.000 412.500 L 149.000 414.375 L 149.000 415.500 L 151.000 417.375 L 151.000 418.500 L 154.000 421.375 L 154.000 422.500 L 157.000 425.375 L 157.000 426.500 L 161.000 430.375 L 161.000 431.500 L 169.000 439.375 L 169.000 440.500 L 175.375 446.875 L 176.500 446.875 L 184.375 454.875 L 185.500 454.875 L 189.375 458.875 L 190.500 458.875 L 193.375 461.875 L 194.500 461.875 L 197.375 464.875 L 198.500 464.875 L 200.375 466.875 L 201.500 466.875 L 203.375 468.875 L 204.500 468.875 L 206.375 470.875 L 207.500 470.875 L 208.375 471.875 L 209.500 471.875 L 211.375 473.875 L 212.500 473.875 L 213.375 474.875 L 214.500 474.875 L 215.375 475.875 L 216.500 475.875 L 218.375 477.875 L 219.500 477.875 L 220.375 478.875 L 221.500 478.875 L 222.375 479.875 L 223.500 479.875 L 224.375 480.875 L 225.500 480.875 L 226.625 482.000 L 228.500 481.875 L 229.375 482.875 L 230.500 482.875 L 231.375 483.875 L 232.500 483.875 L 233.375 484.875 L 234.500 484.875 L 235.625 486.000 L 237.500 485.875 L 238.375 486.875 L 239.500 486.875 L 240.625 488.000 L 242.500 487.875 L 243.625 489.000 L 245.500 488.875 L 246.625 490.000 L 248.500 489.875 L 249.625 491.000 L 251.500 490.875 L 252.375 491.875 L 254.500 491.875 L 255.625 493.000 L 258.500 492.875 L 259.375 493.875 L 261.500 493.875 L 262.625 495.000 L 265.500 494.875 L 266.625 496.000 L 270.500 495.875 L 271.625 497.000 L 275.500 496.875 L 276.625 498.000 L 281.500 497.875 L 282.625 499.000 L 289.500 498.875 L 290.000 499.875 L 329.875 499.875 L 330.375 498.875 L 337.250 499.000 L 338.375 497.875 L 343.250 498.000 L 344.375 496.875 L 348.250 497.000 L 349.375 495.875 L 353.250 496.000 L 354.375 494.875 L 357.250 495.000 L 358.375 493.875 L 360.500 493.875 L 361.375 492.875 L 364.250 493.000 L 365.375 491.875 L 367.250 492.000 L 368.375 490.875 L 370.250 491.000 L 371.375 489.875 L 373.250 490.000 L 374.375 488.875 L 376.250 489.000 L 377.375 487.875 L 378.500 487.875 L 379.375 486.875 L 381.250 487.000 L 382.375 485.875 L 383.500 485.875 L 384.375 484.875 L 385.500 484.875 L 386.375 483.875 L 388.250 484.000 L 389.375 482.875 L 390.500 482.875 L 391.375 481.875 L 392.500 481.875 L 393.375 480.875 L 394.500 480.875 L 395.375 479.875 L 396.500 479.875 L 397.375 478.875 L 398.500 478.875 L 400.375 476.875 L 401.500 476.875 L 402.375 475.875 L 403.500 475.875 L 404.375 474.875 L 405.500 474.875 L 407.375 472.875 L 408.500 472.875 L 409.375 471.875 L 410.500 471.875 L 412.375 469.875 L 413.500 469.875 L 415.375 467.875 L 416.500 467.875 L 418.375 465.875 L 419.500 465.875 L 422.375 462.875 L 423.500 462.875 L 427.375 458.875 L 428.500 458.875 L 433.375 453.875 L 434.500 453.875 L 452.875 435.500 L 452.875 434.375 L 457.875 429.500 L 457.875 428.375 L 460.875 425.500 L 460.875 424.375 L 463.875 421.500 L 463.875 420.375 L 465.875 418.500 L 465.875 417.375 L 468.875 414.500 L 468.875 413.375 L 469.875 412.500 L 469.875 411.375 L 471.875 409.500 L 471.875 408.375 L 473.875 406.500 L 473.875 405.375 L 474.875 404.500 L 474.875 403.375 L 475.875 402.500 L 475.875 401.375 L 476.875 400.500 L 476.875 399.375 L 478.875 397.500 L 478.875 396.375 L 479.875 395.500 L 479.875 394.375 L 480.875 393.500 L 480.875 392.375 L 481.875 391.500 L 481.875 390.375 L 483.000 389.250 L 482.875 387.375 L 483.875 386.500 L 483.875 385.375 L 484.875 384.500 L 484.875 383.375 L 486.000 382.250 L 485.875 380.375 L 486.875 379.500 L 486.875 378.375 L 488.000 377.250 L 487.875 375.375 L 489.000 374.250 L 488.875 372.375 L 489.875 371.500 L 489.875 370.375 L 491.000 369.250 L 490.875 367.375 L 492.000 366.250 L 491.875 363.375 L 492.875 362.500 L 492.875 360.375 L 494.000 359.250 L 493.875 356.375 L 495.000 355.250 L 494.875 352.375 L 496.000 351.250 L 495.875 348.375 L 497.000 347.250 L 496.875 342.375 L 498.000 341.250 L 497.875 336.375 L 499.000 335.250 L 498.875 328.375 L 499.875 327.875 L 499.875 290.000 L 498.875 289.500 L 499.000 281.625 L 497.875 280.500 L 498.000 275.625 L 496.875 274.500 L 497.000 270.625 L 495.875 269.500 L 496.000 265.625 L 494.875 264.500 L 495.000 261.625 L 493.875 260.500 L 494.000 257.625 L 492.875 256.500 L 493.000 254.625 L 491.875 253.500 L 492.000 251.625 L 490.875 250.500 L 491.000 248.625 L 489.875 247.500 L 490.000 245.625 L 488.875 244.500 L 489.000 242.625 L 487.875 241.500 L 488.000 239.625 L 486.875 238.500 L 486.875 237.375 L 485.875 236.500 L 486.000 234.625 L 484.875 233.500 L 484.875 232.375 L 483.875 231.500 L 483.875 230.375 L 482.875 229.500 L 482.875 228.375 L 481.875 227.500 L 481.875 226.375 L 480.875 225.500 L 480.875 224.375 L 479.875 223.500 L 479.875 222.375 L 478.875 221.500 L 478.875 220.375 L 477.875 219.500 L 477.875 218.375 L 476.875 217.500 L 476.875 216.375 L 475.875 215.500 L 475.875 214.375 L 474.875 213.500 L 474.875 212.375 L 472.875 210.500 L 472.875 209.375 L 471.875 208.500 L 471.875 207.375 L 469.875 205.500 L 469.875 204.375 L 467.875 202.500 L 467.875 201.375 L 465.875 199.500 L 465.875 198.375 L 462.875 195.500 L 462.875 194.375 L 459.875 191.500 L 459.875 190.375 L 454.875 185.500 L 454.875 184.375 L 432.500 162.000 L 431.375 162.000 L 427.500 158.000 L 426.375 158.000 L 423.500 155.000 L 422.375 155.000 L 419.500 152.000 L 418.375 152.000 L 416.500 150.000 L 415.375 150.000 L 413.500 148.000 L 412.375 148.000 L 410.500 146.000 L 409.375 146.000 L 408.500 145.000 L 407.375 145.000 L 405.500 143.000 L 404.375 143.000 L 403.500 142.000 L 402.375 142.000 L 401.500 141.000 L 400.375 141.000 L 399.500 140.000 L 398.375 140.000 L 397.500 139.000 L 396.375 139.000 L 394.250 136.875 L 392.375 137.000 L 391.500 136.000 L 390.375 136.000 L 389.500 135.000 L 388.375 135.000 L 387.500 134.000 L 386.375 134.000 L 385.500 133.000 L 384.375 133.000 L 383.250 131.875 L 381.375 132.000 L 380.500 131.000 L 379.375 131.000 L 378.250 129.875 L 376.375 130.000 L 375.250 128.875 L 373.375 129.000 L 372.250 127.875 L 370.375 128.000 L 369.250 126.875 L 367.375 127.000 L 366.250 125.875 L 364.375 126.000 L 363.500 125.000 L 361.375 125.000 L 360.250 123.875 L 357.375 124.000 L 356.250 122.875 L 353.375 123.000 L 352.250 121.875 L 348.375 122.000 L 347.250 120.875 L 343.375 121.000 L 342.250 119.875 L 337.375 120.000 L 336.250 118.875 L 329.375 119.000 L 328.250 117.875 L 237.375 118.000 L 236.875 117.500 L 236.875 0.000 Z" fill="#ffffff"/>
</svg>